<?xml version="1.0" encoding="UTF-8"?>
<svg width="256" height="256" version="1.1" viewBox="0 0 67.733 67.733" xmlns="http://www.w3.org/2000/svg" xmlns:cc="http://creativecommons.org/ns#" xmlns:dc="http://purl.org/dc/elements/1.1/" xmlns:rdf="http://www.w3.org/1999/02/22-rdf-syntax-ns#">
 <metadata>
  <rdf:RDF>
   <cc:Work rdf:about="">
    <dc:format>image/svg+xml</dc:format>
    <dc:type rdf:resource="http://purl.org/dc/dcmitype/StillImage"/>
    <dc:title/>
   </cc:Work>
  </rdf:RDF>
 </metadata>
 <g stroke="#000">
  <path d="m21.068 9.9079a11.587 11.587 0 0 0-11.587 11.588 11.587 11.587 0 0 0 8.5527 11.182v20.269l6.0693 6.0698v-26.338a11.587 11.587 0 0 0 8.5527-11.183 11.587 11.587 0 0 0-11.588-11.588zm-0.0112 3.8624a6.842 3.421 0 0 1 0.0112 0 6.842 3.421 0 0 1 6.8423 3.4214 6.842 3.421 0 0 1-6.8423 3.4209 6.842 3.421 0 0 1-6.8417-3.4209 6.842 3.421 0 0 1 6.8305-3.4214z" fill="#ddd" stroke-width=".98538"/>
  <path d="m27.965 8.2158a11.587 11.587 0 0 0-11.587 11.587 11.587 11.587 0 0 0 11.587 11.587 11.587 11.587 0 0 0 11.183-8.5522h20.269l6.0693-6.0698h-26.338a11.587 11.587 0 0 0-11.183-8.5522zm-4.3094 4.7448a3.421 6.842 0 0 1 0.0056 0 3.421 6.842 0 0 1 3.4209 6.8423 3.421 6.842 0 0 1-3.4209 6.8417 3.421 6.842 0 0 1-3.4209-6.8417 3.421 6.842 0 0 1 3.4153-6.8423z" fill="#ddd" stroke-width=".98538"/>
  <path d="m2.5342 7.9681 21.265 7.3904c0.36763 2.2259-0.44732 3.2238-1.4129 4.0653l-21.265-7.3904c-0.35382-1.685 0.20712-3.0041 1.4129-4.0653z" fill="#feff24" stroke-width=".98538"/>
 </g>
</svg>
